<svg xmlns="http://www.w3.org/2000/svg">
  <symbol viewBox="0 0 30 30" id="facebook">
				<path d="M30 15C30 22.4863 24.5075 28.6925 17.3375 29.8188V19.365H20.8237L21.4875 15.04H17.3375V12.2338C17.3375 11.05 17.9175 9.8975 19.775 9.8975H21.6613V6.215C21.6613 6.215 19.9488 5.9225 18.3125 5.9225C14.895 5.9225 12.6625 7.99375 12.6625 11.7425V15.0388H8.86375V19.3638H12.6625V29.8175C5.49375 28.69 0 22.485 0 15C0 6.71625 6.71625 0 15 0C23.2837 0 30 6.715 30 15Z" />
			</symbol>
			<symbol viewBox="0 0 30 30" id="linkedin">
				<path d="M15 0C6.71512 0 0 6.71512 0 15C0 23.2849 6.71512 30 15 30C23.2849 30 30 23.2849 30 15C30 6.71512 23.2849 0 15 0ZM10.4302 22.8663H6.77616V11.1192H10.4302V22.8663ZM8.59884 9.50581C7.43023 9.50581 6.47965 8.55523 6.47965 7.38663C6.47965 6.21802 7.43023 5.26744 8.59884 5.26744C9.76744 5.26744 10.718 6.21802 10.718 7.38663C10.718 8.55523 9.76744 9.50581 8.59884 9.50581ZM24.0959 22.8663H20.4506V17.1541C20.4506 15.7936 20.4244 14.0407 18.5494 14.0407C16.6483 14.0407 16.3605 15.5233 16.3605 17.0581V22.875H12.7151V11.1192H16.2209V12.7238H16.2645C16.9797 11.5029 18.3052 10.7703 19.718 10.8227C23.4157 10.8227 24.0959 13.2558 24.0959 16.4215V22.8663Z" />
			</symbol>
			<symbol viewBox="0 0 30 30" id="insta"><g  clip-path="url(#a)"><path d="M15 2.703c4.005 0 4.48.014 6.061.087 1.635.075 3.319.447 4.51 1.639 1.203 1.202 1.564 2.87 1.639 4.51.072 1.581.087 2.056.087 6.061s-.015 4.48-.087 6.061c-.074 1.627-.455 3.326-1.639 4.51-1.202 1.203-2.869 1.564-4.51 1.639-1.581.072-2.056.087-6.061.087s-4.48-.015-6.061-.087c-1.614-.074-3.337-.464-4.51-1.639-1.197-1.196-1.564-2.88-1.639-4.51-.073-1.581-.087-2.056-.087-6.061s.014-4.48.087-6.061c.074-1.62.459-3.33 1.639-4.51 1.2-1.2 2.873-1.564 4.51-1.639 1.581-.073 2.056-.087 6.061-.087ZM15 0c-4.074 0-4.585.018-6.185.09-2.319.106-4.621.751-6.297 2.428C.835 4.2.196 6.498.09 8.814.018 10.415 0 10.926 0 15s.018 4.585.09 6.185c.106 2.316.754 4.625 2.428 6.298 1.68 1.68 3.982 2.32 6.297 2.427 1.6.073 2.111.09 6.185.09s4.585-.017 6.185-.09c2.318-.106 4.623-.753 6.298-2.427 1.683-1.684 2.32-3.98 2.427-6.298.073-1.6.09-2.111.09-6.185s-.017-4.585-.09-6.185c-.106-2.319-.753-4.622-2.427-6.297C25.803.838 23.495.195 21.184.09 19.585.018 19.074 0 15 0Z"/><path d="M15 7.297a7.703 7.703 0 1 0 0 15.406 7.703 7.703 0 0 0 0-15.406ZM15 20a5 5 0 1 1 0-10 5 5 0 0 1 0 10ZM23.008 8.793a1.8 1.8 0 1 0 0-3.6 1.8 1.8 0 0 0 0 3.6Z"/></g><defs><clipPath id="a"><path d="M0 0h30v30H0z"/></clipPath></defs>
			</symbol>
			<symbol id="secFacebook" viewBox="0 0 24 24"><path fill-rule="evenodd" d="M2 6a4 4 0 0 1 4-4h12a4 4 0 0 1 4 4v12a4 4 0 0 1-4 4H6a4 4 0 0 1-4-4V6Zm4-2a2 2 0 0 0-2 2v12a2 2 0 0 0 2 2h6v-7h-1a1 1 0 1 1 0-2h1V9.5A3.5 3.5 0 0 1 15.5 6h.6a1 1 0 1 1 0 2h-.6A1.5 1.5 0 0 0 14 9.5V11h2.1a1 1 0 1 1 0 2H14v7h4a2 2 0 0 0 2-2V6a2 2 0 0 0-2-2H6Z" clip-rule="evenodd"/></symbol>
</svg>